<svg width="56" height="56" viewBox="0 0 56 56" fill="none" xmlns="http://www.w3.org/2000/svg">
<rect x="0.5" y="0.5" width="55" height="55" rx="27.5" stroke="#545961"/>
<path d="M25.375 30.2852C25.2383 30.4219 25.1836 30.5859 25.1836 30.75C25.1836 30.9414 25.2383 31.1055 25.375 31.2148L29.0938 34.9336C29.2031 35.0703 29.3672 35.125 29.5586 35.125C29.7227 35.125 29.8867 35.0703 30.0234 34.9336L30.625 34.3047C30.7344 34.1953 30.8164 34.0312 30.8164 33.8398C30.8164 33.6758 30.7344 33.5117 30.625 33.375L28 30.75L30.625 28.0977C30.7344 27.9883 30.8164 27.8516 30.8164 27.6602C30.8164 27.4961 30.7344 27.332 30.625 27.1953L30.0234 26.5664C29.8867 26.457 29.7227 26.375 29.5586 26.375C29.3672 26.375 29.2031 26.457 29.0938 26.5664L25.375 30.2852Z" fill="#1B1D21"/>
</svg>
