<svg width="56" height="56" viewBox="0 0 56 56" fill="none" xmlns="http://www.w3.org/2000/svg">
<rect x="0.5" y="0.5" width="55" height="55" rx="27.5" stroke="#545961"/>
<path d="M30.625 31.2148C30.7344 31.1055 30.8164 30.9414 30.8164 30.75C30.8164 30.5859 30.7344 30.4219 30.625 30.2852L26.9062 26.5664C26.7695 26.457 26.6055 26.375 26.4414 26.375C26.25 26.375 26.0859 26.457 25.9766 26.5664L25.375 27.1953C25.2383 27.332 25.1836 27.4961 25.1836 27.6602C25.1836 27.8516 25.2383 28.0156 25.375 28.125L28 30.75L25.375 33.375C25.2383 33.5117 25.1836 33.6758 25.1836 33.8398C25.1836 34.0312 25.2383 34.1953 25.375 34.3047L25.9766 34.9336C26.0859 35.0703 26.25 35.125 26.4414 35.125C26.6055 35.125 26.7695 35.0703 26.9062 34.9336L30.625 31.2148Z" fill="#1B1D21"/>
</svg>
