<svg width="14" height="14" viewBox="0 0 14 14" fill="none" xmlns="http://www.w3.org/2000/svg">
<path d="M11.6667 1.66668H10.3333V1.00001C10.3333 0.823199 10.2631 0.65363 10.1381 0.528606C10.013 0.403581 9.84348 0.333344 9.66667 0.333344C9.48985 0.333344 9.32029 0.403581 9.19526 0.528606C9.07024 0.65363 9 0.823199 9 1.00001V1.66668H5V1.00001C5 0.823199 4.92976 0.65363 4.80474 0.528606C4.67971 0.403581 4.51014 0.333344 4.33333 0.333344C4.15652 0.333344 3.98695 0.403581 3.86193 0.528606C3.7369 0.65363 3.66667 0.823199 3.66667 1.00001V1.66668H2.33333C1.8029 1.66668 1.29419 1.87739 0.919119 2.25246C0.544046 2.62754 0.333332 3.13624 0.333332 3.66668V11.6667C0.333332 12.1971 0.544046 12.7058 0.919119 13.0809C1.29419 13.456 1.8029 13.6667 2.33333 13.6667H11.6667C12.1971 13.6667 12.7058 13.456 13.0809 13.0809C13.456 12.7058 13.6667 12.1971 13.6667 11.6667V3.66668C13.6667 3.13624 13.456 2.62754 13.0809 2.25246C12.7058 1.87739 12.1971 1.66668 11.6667 1.66668ZM12.3333 11.6667C12.3333 11.8435 12.2631 12.0131 12.1381 12.1381C12.013 12.2631 11.8435 12.3333 11.6667 12.3333H2.33333C2.15652 12.3333 1.98695 12.2631 1.86193 12.1381C1.7369 12.0131 1.66667 11.8435 1.66667 11.6667V7.00001H12.3333V11.6667ZM12.3333 5.66668H1.66667V3.66668C1.66667 3.48987 1.7369 3.3203 1.86193 3.19527C1.98695 3.07025 2.15652 3.00001 2.33333 3.00001H3.66667V3.66668C3.66667 3.84349 3.7369 4.01306 3.86193 4.13808C3.98695 4.26311 4.15652 4.33334 4.33333 4.33334C4.51014 4.33334 4.67971 4.26311 4.80474 4.13808C4.92976 4.01306 5 3.84349 5 3.66668V3.00001H9V3.66668C9 3.84349 9.07024 4.01306 9.19526 4.13808C9.32029 4.26311 9.48985 4.33334 9.66667 4.33334C9.84348 4.33334 10.013 4.26311 10.1381 4.13808C10.2631 4.01306 10.3333 3.84349 10.3333 3.66668V3.00001H11.6667C11.8435 3.00001 12.013 3.07025 12.1381 3.19527C12.2631 3.3203 12.3333 3.48987 12.3333 3.66668V5.66668Z" fill="black"/>
</svg>
