<svg width="16" height="14" viewBox="0 0 16 14" fill="none" xmlns="http://www.w3.org/2000/svg">
<path d="M11.75 6.25H11C10.8011 6.25 10.6103 6.32902 10.4697 6.46967C10.329 6.61032 10.25 6.80109 10.25 7C10.25 7.19891 10.329 7.38968 10.4697 7.53033C10.6103 7.67098 10.8011 7.75 11 7.75H11.75C11.9489 7.75 12.1397 7.67098 12.2803 7.53033C12.421 7.38968 12.5 7.19891 12.5 7C12.5 6.80109 12.421 6.61032 12.2803 6.46967C12.1397 6.32902 11.9489 6.25 11.75 6.25ZM11.75 9.25H11C10.8011 9.25 10.6103 9.32902 10.4697 9.46967C10.329 9.61032 10.25 9.80109 10.25 10C10.25 10.1989 10.329 10.3897 10.4697 10.5303C10.6103 10.671 10.8011 10.75 11 10.75H11.75C11.9489 10.75 12.1397 10.671 12.2803 10.5303C12.421 10.3897 12.5 10.1989 12.5 10C12.5 9.80109 12.421 9.61032 12.2803 9.46967C12.1397 9.32902 11.9489 9.25 11.75 9.25ZM7.25 4.75H11.75C11.9489 4.75 12.1397 4.67098 12.2803 4.53033C12.421 4.38968 12.5 4.19891 12.5 4C12.5 3.80109 12.421 3.61032 12.2803 3.46967C12.1397 3.32902 11.9489 3.25 11.75 3.25H7.25C7.05109 3.25 6.86032 3.32902 6.71967 3.46967C6.57902 3.61032 6.5 3.80109 6.5 4C6.5 4.19891 6.57902 4.38968 6.71967 4.53033C6.86032 4.67098 7.05109 4.75 7.25 4.75ZM14.75 0.25H4.25C4.05109 0.25 3.86032 0.329018 3.71967 0.46967C3.57902 0.610322 3.5 0.801088 3.5 1V3.25H1.25C1.05109 3.25 0.860322 3.32902 0.71967 3.46967C0.579018 3.61032 0.5 3.80109 0.5 4V11.5C0.5 12.0967 0.737053 12.669 1.15901 13.091C1.58097 13.5129 2.15326 13.75 2.75 13.75H12.5C13.2956 13.75 14.0587 13.4339 14.6213 12.8713C15.1839 12.3087 15.5 11.5456 15.5 10.75V1C15.5 0.801088 15.421 0.610322 15.2803 0.46967C15.1397 0.329018 14.9489 0.25 14.75 0.25ZM3.5 11.5C3.5 11.6989 3.42098 11.8897 3.28033 12.0303C3.13968 12.171 2.94891 12.25 2.75 12.25C2.55109 12.25 2.36032 12.171 2.21967 12.0303C2.07902 11.8897 2 11.6989 2 11.5V4.75H3.5V11.5ZM14 10.75C14 11.1478 13.842 11.5294 13.5607 11.8107C13.2794 12.092 12.8978 12.25 12.5 12.25H4.865C4.95232 12.0095 4.99797 11.7559 5 11.5V1.75H14V10.75ZM7.25 7.75H8C8.19891 7.75 8.38968 7.67098 8.53033 7.53033C8.67098 7.38968 8.75 7.19891 8.75 7C8.75 6.80109 8.67098 6.61032 8.53033 6.46967C8.38968 6.32902 8.19891 6.25 8 6.25H7.25C7.05109 6.25 6.86032 6.32902 6.71967 6.46967C6.57902 6.61032 6.5 6.80109 6.5 7C6.5 7.19891 6.57902 7.38968 6.71967 7.53033C6.86032 7.67098 7.05109 7.75 7.25 7.75ZM7.25 10.75H8C8.19891 10.75 8.38968 10.671 8.53033 10.5303C8.67098 10.3897 8.75 10.1989 8.75 10C8.75 9.80109 8.67098 9.61032 8.53033 9.46967C8.38968 9.32902 8.19891 9.25 8 9.25H7.25C7.05109 9.25 6.86032 9.32902 6.71967 9.46967C6.57902 9.61032 6.5 9.80109 6.5 10C6.5 10.1989 6.57902 10.3897 6.71967 10.5303C6.86032 10.671 7.05109 10.75 7.25 10.75Z" fill="black"/>
</svg>
