<svg width="24" height="24" viewBox="0 0 24 24" fill="none" xmlns="http://www.w3.org/2000/svg">
<rect width="24" height="24" rx="6" fill="black"/>
<path d="M17.4467 10.1533L8.11332 6.3C7.76017 6.15386 7.37254 6.11196 6.99632 6.17927C6.6201 6.24659 6.27105 6.42029 5.99048 6.67981C5.70991 6.93934 5.50958 7.27382 5.4132 7.64366C5.31682 8.0135 5.32843 8.40322 5.44665 8.76667L6.47332 12L5.41999 15.2333C5.29857 15.5982 5.28493 15.9904 5.3807 16.3629C5.47648 16.7353 5.6776 17.0723 5.95999 17.3333C6.32308 17.67 6.79818 17.8601 7.29332 17.8667C7.55647 17.8665 7.81701 17.8144 8.05999 17.7133L17.4267 13.86C17.7914 13.7083 18.1031 13.4519 18.3224 13.1233C18.5416 12.7946 18.6587 12.4084 18.6587 12.0133C18.6587 11.6183 18.5416 11.232 18.3224 10.9034C18.1031 10.5747 17.7914 10.3184 17.4267 10.1667L17.4467 10.1533ZM7.57332 16.4667C7.45572 16.5152 7.3267 16.529 7.20148 16.5066C7.07626 16.4841 6.96008 16.4263 6.86665 16.34C6.77864 16.2559 6.71534 16.1493 6.68361 16.0318C6.65188 15.9143 6.65293 15.7903 6.68665 15.6733L7.65999 12.6667H16.8133L7.57332 16.4667ZM7.65999 11.3333L6.66665 8.35333C6.63293 8.23637 6.63188 8.1124 6.66361 7.99488C6.69534 7.87736 6.75864 7.77076 6.84665 7.68667C6.90939 7.62085 6.98493 7.56856 7.06862 7.53302C7.15232 7.49748 7.24239 7.47944 7.33332 7.48C7.42268 7.48017 7.5111 7.49831 7.59332 7.53333L16.8133 11.3333H7.65999Z" fill="white"/>
</svg>
